# xmcd CD database file
#
# Track frame offsets:
#	150
#	13348
#	28121
#	39891
#	61271
#	74528
#	96383
#	107933
#	126857
#	144623
#	160110
#	177746
#
# Disc length: 2763 seconds
#
# Revision: 0
# Processed by: cddbd v1.5.2PL0 Copyright (c) Steve Scherf et al.
# Submitted via: CDex 1.51
#
DISCID=b00ac90c
DTITLE=Chesnutt, Mark - Outlaw
DYEAR=2010
DGENRE=Country
TTITLE0=Black Rose
TTITLE1=Whiskey Bent and Hell Bound
TTITLE2=Only Daddy That'll Walk the Line
TTITLE3=A Couple More Years
TTITLE4=Need A Little Time Off for Bad Behavior
TTITLE5=Sunday Mornin' Comin' Down
TTITLE6=Are You Ready for the Country
TTITLE7=Lovin' Her Was Easier (Than Anything I'll Ever Do Again)
TTITLE8=Country State of Mind
TTITLE9=Freedom to Stay
TTITLE10=Bloody Mary Morning
TTITLE11=Desperados Waiting for A Train
EXTD=YEAR: 2010
EXTT0=
EXTT1=
EXTT2=
EXTT3=
EXTT4=
EXTT5=
EXTT6=
EXTT7=
EXTT8=
EXTT9=
EXTT10=
EXTT11=
PLAYORDER=
